{
  "accessors": [
    {
      "bufferView": 2,
      "componentType": 5126,
      "count": 2212,
      "max": [
        7.5,
        21.958744049072266,
        23.299999237060547
      ],
      "min": [
        -7.5,
        -0.5,
        -5
      ],
      "type": "VEC3"
    },
    {
      "bufferView": 2,
      "byteOffset": 26544,
      "componentType": 5126,
      "count": 2212,
      "max": [
        1,
        1,
        1
      ],
      "min": [
        -1,
        -1,
        -1
      ],
      "type": "VEC3"
    },
    {
      "bufferView": 3,
      "componentType": 5126,
      "count": 2212,
      "max": [
        1,
        1,
        1,
        1
      ],
      "min": [
        -1,
        -0.35809370875358582,
        -1,
        -1
      ],
      "type": "VEC4"
    },
    {
      "bufferView": 1,
      "componentType": 5126,
      "count": 2212,
      "max": [
        2.2505059242248535,
        1.1599984169006348
      ],
      "min": [
        -0.089999109506607056,
        -0.49567669630050659
      ],
      "type": "VEC2"
    },
    {
      "bufferView": 0,
      "componentType": 5125,
      "count": 4953,
      "max": [
        2211
      ],
      "min": [
        0
      ],
      "type": "SCALAR"
    },
    {
      "bufferView": 2,
      "byteOffset": 53088,
      "componentType": 5126,
      "count": 62,
      "max": [
        7.5,
        20.458744049072266,
        22.059999465942383
      ],
      "min": [
        -7.5,
        6.5,
        -3.1817855834960938
      ],
      "type": "VEC3"
    },
    {
      "bufferView": 2,
      "byteOffset": 53832,
      "componentType": 5126,
      "count": 62,
      "max": [
        0.98995709419250488,
        1,
        0.85732775926589966
      ],
      "min": [
        -0.98995649814605713,
        -0.97014260292053223,
        -0.85732775926589966
      ],
      "type": "VEC3"
    },
    {
      "bufferView": 3,
      "byteOffset": 35392,
      "componentType": 5126,
      "count": 62,
      "max": [
        0.86184054613113403,
        0.20546014606952667,
        1,
        1
      ],
      "min": [
        -0.8618432879447937,
        -0.038348186761140823,
        -1,
        1
      ],
      "type": "VEC4"
    },
    {
      "bufferView": 1,
      "byteOffset": 17696,
      "componentType": 5126,
      "count": 62,
      "max": [
        2.6091580390930176,
        3.6336746215820312
      ],
      "min": [
        -2.0466582775115967,
        -2.6336746215820312
      ],
      "type": "VEC2"
    },
    {
      "bufferView": 0,
      "byteOffset": 19812,
      "componentType": 5125,
      "count": 126,
      "max": [
        61
      ],
      "min": [
        0
      ],
      "type": "SCALAR"
    },
    {
      "bufferView": 2,
      "byteOffset": 54576,
      "componentType": 5126,
      "count": 1994,
      "max": [
        7.5,
        14.458745002746582,
        23.5
      ],
      "min": [
        -7.5,
        -0.5,
        -5.1999998092651367
      ],
      "type": "VEC3"
    },
    {
      "bufferView": 2,
      "byteOffset": 78504,
      "componentType": 5126,
      "count": 1994,
      "max": [
        1,
        1,
        1
      ],
      "min": [
        -1,
        -1,
        -1
      ],
      "type": "VEC3"
    },
    {
      "bufferView": 3,
      "byteOffset": 36384,
      "componentType": 5126,
      "count": 1994,
      "max": [
        1,
        1,
        1,
        1
      ],
      "min": [
        -1,
        -1,
        -1,
        -1
      ],
      "type": "VEC4"
    },
    {
      "bufferView": 1,
      "byteOffset": 18192,
      "componentType": 5126,
      "count": 1994,
      "max": [
        6.2791299819946289,
        3.9966504573822021
      ],
      "min": [
        -5.8612890243530273,
        -6.7887454032897949
      ],
      "type": "VEC2"
    },
    {
      "bufferView": 0,
      "byteOffset": 20316,
      "componentType": 5125,
      "count": 3480,
      "max": [
        1993
      ],
      "min": [
        0
      ],
      "type": "SCALAR"
    },
    {
      "bufferView": 2,
      "byteOffset": 102432,
      "componentType": 5126,
      "count": 587,
      "max": [
        6.4877300262451172,
        2.7000000476837158,
        19.25
      ],
      "min": [
        -6.4958772659301758,
        0.69999998807907104,
        6.125
      ],
      "type": "VEC3"
    },
    {
      "bufferView": 2,
      "byteOffset": 109476,
      "componentType": 5126,
      "count": 587,
      "max": [
        1,
        -0,
        1
      ],
      "min": [
        -1,
        -1,
        -1
      ],
      "type": "VEC3"
    },
    {
      "bufferView": 3,
      "byteOffset": 68288,
      "componentType": 5126,
      "count": 587,
      "max": [
        1.4097215625952231e-06,
        1,
        1,
        1
      ],
      "min": [
        -1.5258787016136921e-06,
        -1,
        -1,
        1
      ],
      "type": "VEC4"
    },
    {
      "bufferView": 1,
      "byteOffset": 34144,
      "componentType": 5126,
      "count": 587,
      "max": [
        1.0081028938293457,
        1.7921829223632812
      ],
      "min": [
        -0.44560292363166809,
        -0.79218292236328125
      ],
      "type": "VEC2"
    },
    {
      "bufferView": 0,
      "byteOffset": 34236,
      "componentType": 5125,
      "count": 1074,
      "max": [
        586
      ],
      "min": [
        0
      ],
      "type": "SCALAR"
    },
    {
      "bufferView": 2,
      "byteOffset": 116520,
      "componentType": 5126,
      "count": 23,
      "max": [
        6.5,
        1.25,
        20.5
      ],
      "min": [
        -1.0833332538604736,
        0.5,
        1.75
      ],
      "type": "VEC3"
    },
    {
      "bufferView": 2,
      "byteOffset": 116796,
      "componentType": 5126,
      "count": 23,
      "max": [
        0,
        1,
        1
      ],
      "min": [
        -1,
        -1,
        -0
      ],
      "type": "VEC3"
    },
    {
      "bufferView": 3,
      "byteOffset": 77680,
      "componentType": 5126,
      "count": 23,
      "max": [
        1,
        0,
        1,
        1
      ],
      "min": [
        -8.3455972799129086e-07,
        -1,
        -5.2454959131864598e-07,
        1
      ],
      "type": "VEC4"
    },
    {
      "bufferView": 1,
      "byteOffset": 38840,
      "componentType": 5126,
      "count": 23,
      "max": [
        1,
        1
      ],
      "min": [
        0,
        0
      ],
      "type": "VEC2"
    },
    {
      "bufferView": 0,
      "byteOffset": 38532,
      "componentType": 5125,
      "count": 45,
      "max": [
        22
      ],
      "min": [
        0
      ],
      "type": "SCALAR"
    },
    {
      "bufferView": 2,
      "byteOffset": 117072,
      "componentType": 5126,
      "count": 52,
      "max": [
        5.6666669845581055,
        3.9000000953674316,
        0.5
      ],
      "min": [
        4.3333334922790527,
        2,
        0.25234949588775635
      ],
      "type": "VEC3"
    },
    {
      "bufferView": 2,
      "byteOffset": 117696,
      "componentType": 5126,
      "count": 52,
      "max": [
        1,
        1,
        1
      ],
      "min": [
        -1,
        -1,
        -0
      ],
      "type": "VEC3"
    },
    {
      "bufferView": 3,
      "byteOffset": 78048,
      "componentType": 5126,
      "count": 52,
      "max": [
        0.9230772852897644,
        0,
        1,
        1
      ],
      "min": [
        0,
        -1,
        -1,
        1
      ],
      "type": "VEC4"
    },
    {
      "bufferView": 1,
      "byteOffset": 39024,
      "componentType": 5126,
      "count": 52,
      "max": [
        0.86211687326431274,
        1.0015575885772705
      ],
      "min": [
        0.32374602556228638,
        0.044453978538513184
      ],
      "type": "VEC2"
    },
    {
      "bufferView": 0,
      "byteOffset": 38712,
      "componentType": 5125,
      "count": 90,
      "max": [
        51
      ],
      "min": [
        0
      ],
      "type": "SCALAR"
    },
    {
      "bufferView": 2,
      "byteOffset": 118320,
      "componentType": 5126,
      "count": 275,
      "max": [
        6.5,
        9.5,
        20.5
      ],
      "min": [
        -6.5364036560058594,
        0.40000000596046448,
        0.25234949588775635
      ],
      "type": "VEC3"
    },
    {
      "bufferView": 2,
      "byteOffset": 121620,
      "componentType": 5126,
      "count": 275,
      "max": [
        1,
        1,
        1
      ],
      "min": [
        -1,
        -1,
        -1
      ],
      "type": "VEC3"
    },
    {
      "bufferView": 3,
      "byteOffset": 78880,
      "componentType": 5126,
      "count": 275,
      "max": [
        1,
        1,
        1,
        1
      ],
      "min": [
        -1,
        -1,
        -1,
        1
      ],
      "type": "VEC4"
    },
    {
      "bufferView": 1,
      "byteOffset": 39440,
      "componentType": 5126,
      "count": 275,
      "max": [
        0.9999508261680603,
        1
      ],
      "min": [
        0,
        0
      ],
      "type": "VEC2"
    },
    {
      "bufferView": 0,
      "byteOffset": 39072,
      "componentType": 5125,
      "count": 513,
      "max": [
        274
      ],
      "min": [
        0
      ],
      "type": "SCALAR"
    },
    {
      "bufferView": 2,
      "byteOffset": 124920,
      "componentType": 5126,
      "count": 147,
      "max": [
        7.5,
        0.69999998807907104,
        21.5
      ],
      "min": [
        -7.5,
        0.5,
        -4
      ],
      "type": "VEC3"
    },
    {
      "bufferView": 2,
      "byteOffset": 126684,
      "componentType": 5126,
      "count": 147,
      "max": [
        -0,
        1,
        -0
      ],
      "min": [
        -0,
        -1,
        -1
      ],
      "type": "VEC3"
    },
    {
      "bufferView": 3,
      "byteOffset": 83280,
      "componentType": 5126,
      "count": 147,
      "max": [
        1,
        4.2678834688558709e-07,
        1,
        1
      ],
      "min": [
        -1,
        -9.5347957085323287e-08,
        -1,
        1
      ],
      "type": "VEC4"
    },
    {
      "bufferView": 1,
      "byteOffset": 41640,
      "componentType": 5126,
      "count": 147,
      "max": [
        0.94562798738479614,
        1.2034292221069336
      ],
      "min": [
        -0.15791225433349609,
        -0.7406543493270874
      ],
      "type": "VEC2"
    },
    {
      "bufferView": 0,
      "byteOffset": 41124,
      "componentType": 5125,
      "count": 225,
      "max": [
        146
      ],
      "min": [
        0
      ],
      "type": "SCALAR"
    },
    {
      "bufferView": 2,
      "byteOffset": 128448,
      "componentType": 5126,
      "count": 511,
      "max": [
        7.5,
        9.568852424621582,
        22
      ],
      "min": [
        -6.5,
        -0.5,
        -4.5
      ],
      "type": "VEC3"
    },
    {
      "bufferView": 2,
      "byteOffset": 134580,
      "componentType": 5126,
      "count": 511,
      "max": [
        1,
        1,
        1
      ],
      "min": [
        -1,
        -1,
        -1
      ],
      "type": "VEC3"
    },
    {
      "bufferView": 3,
      "byteOffset": 85632,
      "componentType": 5126,
      "count": 511,
      "max": [
        1,
        1,
        1,
        1
      ],
      "min": [
        -1,
        -1,
        -1,
        -1
      ],
      "type": "VEC4"
    },
    {
      "bufferView": 1,
      "byteOffset": 42816,
      "componentType": 5126,
      "count": 511,
      "max": [
        3.7814297676086426,
        6.9616832733154297
      ],
      "min": [
        -2.7814302444458008,
        -5.9616832733154297
      ],
      "type": "VEC2"
    },
    {
      "bufferView": 0,
      "byteOffset": 42024,
      "componentType": 5125,
      "count": 924,
      "max": [
        510
      ],
      "min": [
        0
      ],
      "type": "SCALAR"
    },
    {
      "bufferView": 2,
      "byteOffset": 140712,
      "componentType": 5126,
      "count": 138,
      "max": [
        1.2450000047683716,
        0.69512975215911865,
        23.5
      ],
      "min": [
        -1.2450000047683716,
        -0.5,
        -5.1999998092651367
      ],
      "type": "VEC3"
    },
    {
      "bufferView": 2,
      "byteOffset": 142368,
      "componentType": 5126,
      "count": 138,
      "max": [
        1,
        1,
        1
      ],
      "min": [
        -1,
        0,
        -1
      ],
      "type": "VEC3"
    },
    {
      "bufferView": 3,
      "byteOffset": 93808,
      "componentType": 5126,
      "count": 138,
      "max": [
        5.5375971896864939e-07,
        1,
        1,
        1
      ],
      "min": [
        -2.459688175804331e-06,
        -1,
        -1,
        1
      ],
      "type": "VEC4"
    },
    {
      "bufferView": 1,
      "byteOffset": 46904,
      "componentType": 5126,
      "count": 138,
      "max": [
        0.83250302076339722,
        1.5579928159713745
      ],
      "min": [
        0,
        0
      ],
      "type": "VEC2"
    },
    {
      "bufferView": 0,
      "byteOffset": 45720,
      "componentType": 5125,
      "count": 228,
      "max": [
        137
      ],
      "min": [
        0
      ],
      "type": "SCALAR"
    }
  ],
  "asset": {
    "extras": {
      "author": "FinBeastMode (https://sketchfab.com/FinBeastMode)",
      "license": "CC-BY-4.0 (http://creativecommons.org/licenses/by/4.0/)",
      "source": "https://sketchfab.com/3d-models/church-fbb5dfe97bf640278d539ee5f12fdbb3",
      "title": "Church"
    },
    "generator": "Sketchfab-6.1.0",
    "version": "2.0"
  },
  "bufferViews": [
    {
      "buffer": 0,
      "byteLength": 46632,
      "byteOffset": 0,
      "name": "floatBufferViews",
      "target": 34963
    },
    {
      "buffer": 0,
      "byteLength": 48008,
      "byteOffset": 46632,
      "byteStride": 8,
      "name": "floatBufferViews",
      "target": 34962
    },
    {
      "buffer": 0,
      "byteLength": 144024,
      "byteOffset": 94640,
      "byteStride": 12,
      "name": "floatBufferViews",
      "target": 34962
    },
    {
      "buffer": 0,
      "byteLength": 96016,
      "byteOffset": 238664,
      "byteStride": 16,
      "name": "floatBufferViews",
      "target": 34962
    }
  ],
  "buffers": [
    {
      "byteLength": 334680,
      "uri": "scene.bin"
    }
  ],
  "images": [
    {
      "uri": "textures/kulta_baseColor.png"
    },
    {
      "uri": "textures/katto_baseColor.jpeg"
    },
    {
      "uri": "textures/sein_baseColor.jpeg"
    },
    {
      "uri": "textures/puu_penkki_baseColor.png"
    },
    {
      "uri": "textures/punainen_matto_baseColor.jpeg"
    },
    {
      "uri": "textures/kulta_rakeinen_baseColor.jpeg"
    },
    {
      "uri": "textures/puusein_sis_hyv_baseColor.jpeg"
    },
    {
      "uri": "textures/KIRKKO_LATTIAT_baseColor.jpeg"
    },
    {
      "uri": "textures/kirkon_seint_sispuoli_baseColor.jpeg"
    },
    {
      "uri": "textures/betoni_rappuset_baseColor.jpeg"
    }
  ],
  "materials": [
    {
      "doubleSided": true,
      "emissiveFactor": [
        0,
        0,
        0
      ],
      "name": "kulta",
      "pbrMetallicRoughness": {
        "baseColorFactor": [
          1,
          1,
          1,
          1
        ],
        "baseColorTexture": {
          "index": 0,
          "texCoord": 0
        },
        "metallicFactor": 1,
        "roughnessFactor": 0
      }
    },
    {
      "doubleSided": true,
      "emissiveFactor": [
        0,
        0,
        0
      ],
      "name": "katto",
      "pbrMetallicRoughness": {
        "baseColorFactor": [
          1,
          1,
          1,
          1
        ],
        "baseColorTexture": {
          "index": 1,
          "texCoord": 0
        },
        "metallicFactor": 0,
        "roughnessFactor": 1
      }
    },
    {
      "doubleSided": true,
      "emissiveFactor": [
        0,
        0,
        0
      ],
      "name": "sein",
      "pbrMetallicRoughness": {
        "baseColorFactor": [
          1,
          1,
          1,
          1
        ],
        "baseColorTexture": {
          "index": 2,
          "texCoord": 0
        },
        "metallicFactor": 0,
        "roughnessFactor": 1
      }
    },
    {
      "doubleSided": true,
      "emissiveFactor": [
        0,
        0,
        0
      ],
      "name": "puu_penkki",
      "pbrMetallicRoughness": {
        "baseColorFactor": [
          1,
          1,
          1,
          1
        ],
        "baseColorTexture": {
          "index": 3,
          "texCoord": 0
        },
        "metallicFactor": 0,
        "roughnessFactor": 0.63306250572204592
      }
    },
    {
      "doubleSided": true,
      "emissiveFactor": [
        0,
        0,
        0
      ],
      "name": "punainen_matto",
      "pbrMetallicRoughness": {
        "baseColorFactor": [
          1,
          1,
          1,
          1
        ],
        "baseColorTexture": {
          "index": 4,
          "texCoord": 0
        },
        "metallicFactor": 0,
        "roughnessFactor": 0.67681250572204588
      }
    },
    {
      "doubleSided": true,
      "emissiveFactor": [
        0,
        0,
        0
      ],
      "name": "kulta_rakeinen",
      "pbrMetallicRoughness": {
        "baseColorFactor": [
          1,
          1,
          1,
          1
        ],
        "baseColorTexture": {
          "index": 5,
          "texCoord": 0
        },
        "metallicFactor": 1,
        "roughnessFactor": 0
      }
    },
    {
      "doubleSided": true,
      "emissiveFactor": [
        0,
        0,
        0
      ],
      "name": "puusein_sis_hyv",
      "pbrMetallicRoughness": {
        "baseColorFactor": [
          1,
          1,
          1,
          1
        ],
        "baseColorTexture": {
          "index": 6,
          "texCoord": 0
        },
        "metallicFactor": 0,
        "roughnessFactor": 0.5
      }
    },
    {
      "doubleSided": true,
      "emissiveFactor": [
        0,
        0,
        0
      ],
      "name": "KIRKKO_LATTIAT",
      "pbrMetallicRoughness": {
        "baseColorFactor": [
          1,
          1,
          1,
          1
        ],
        "baseColorTexture": {
          "index": 7,
          "texCoord": 0
        },
        "metallicFactor": 0,
        "roughnessFactor": 0.5
      }
    },
    {
      "doubleSided": true,
      "emissiveFactor": [
        0,
        0,
        0
      ],
      "name": "kirkon_seint_sispuoli",
      "pbrMetallicRoughness": {
        "baseColorFactor": [
          1,
          1,
          1,
          1
        ],
        "baseColorTexture": {
          "index": 8,
          "texCoord": 0
        },
        "metallicFactor": 0,
        "roughnessFactor": 0.73931250572204588
      }
    },
    {
      "doubleSided": true,
      "emissiveFactor": [
        0,
        0,
        0
      ],
      "name": "betoni_rappuset",
      "pbrMetallicRoughness": {
        "baseColorFactor": [
          1,
          1,
          1,
          1
        ],
        "baseColorTexture": {
          "index": 9,
          "texCoord": 0
        },
        "metallicFactor": 0,
        "roughnessFactor": 1
      }
    }
  ],
  "meshes": [
    {
      "primitives": [
        {
          "attributes": {
            "NORMAL": 1,
            "POSITION": 0,
            "TANGENT": 2,
            "TEXCOORD_0": 3
          },
          "indices": 4,
          "material": 0,
          "mode": 4
        }
      ]
    },
    {
      "primitives": [
        {
          "attributes": {
            "NORMAL": 6,
            "POSITION": 5,
            "TANGENT": 7,
            "TEXCOORD_0": 8
          },
          "indices": 9,
          "material": 1,
          "mode": 4
        }
      ]
    },
    {
      "primitives": [
        {
          "attributes": {
            "NORMAL": 11,
            "POSITION": 10,
            "TANGENT": 12,
            "TEXCOORD_0": 13
          },
          "indices": 14,
          "material": 2,
          "mode": 4
        }
      ]
    },
    {
      "primitives": [
        {
          "attributes": {
            "NORMAL": 16,
            "POSITION": 15,
            "TANGENT": 17,
            "TEXCOORD_0": 18
          },
          "indices": 19,
          "material": 3,
          "mode": 4
        }
      ]
    },
    {
      "primitives": [
        {
          "attributes": {
            "NORMAL": 21,
            "POSITION": 20,
            "TANGENT": 22,
            "TEXCOORD_0": 23
          },
          "indices": 24,
          "material": 4,
          "mode": 4
        }
      ]
    },
    {
      "primitives": [
        {
          "attributes": {
            "NORMAL": 26,
            "POSITION": 25,
            "TANGENT": 27,
            "TEXCOORD_0": 28
          },
          "indices": 29,
          "material": 5,
          "mode": 4
        }
      ]
    },
    {
      "primitives": [
        {
          "attributes": {
            "NORMAL": 31,
            "POSITION": 30,
            "TANGENT": 32,
            "TEXCOORD_0": 33
          },
          "indices": 34,
          "material": 6,
          "mode": 4
        }
      ]
    },
    {
      "primitives": [
        {
          "attributes": {
            "NORMAL": 36,
            "POSITION": 35,
            "TANGENT": 37,
            "TEXCOORD_0": 38
          },
          "indices": 39,
          "material": 7,
          "mode": 4
        }
      ]
    },
    {
      "primitives": [
        {
          "attributes": {
            "NORMAL": 41,
            "POSITION": 40,
            "TANGENT": 42,
            "TEXCOORD_0": 43
          },
          "indices": 44,
          "material": 8,
          "mode": 4
        }
      ]
    },
    {
      "primitives": [
        {
          "attributes": {
            "NORMAL": 46,
            "POSITION": 45,
            "TANGENT": 47,
            "TEXCOORD_0": 48
          },
          "indices": 49,
          "material": 9,
          "mode": 4
        }
      ]
    }
  ],
  "nodes": [
    {
      "children": [
        1
      ],
      "name": "RootNode (gltf orientation matrix)",
      "rotation": [
        -0.70710678118654746,
        -0,
        -0,
        0.70710678118654757
      ]
    },
    {
      "children": [
        2
      ],
      "name": "RootNode (model correction matrix)"
    },
    {
      "children": [
        3
      ],
      "name": "root"
    },
    {
      "children": [
        4
      ],
      "matrix": [
        1,
        0,
        0,
        0,
        0,
        2.2204460492503131e-16,
        1,
        0,
        0,
        -1,
        2.2204460492503131e-16,
        0,
        0,
        0,
        0,
        1
      ],
      "name": "GLTF_SceneRootNode"
    },
    {
      "children": [
        5,
        6,
        7,
        8,
        9,
        10,
        11,
        12,
        13,
        14
      ],
      "name": "Cube_0"
    },
    {
      "mesh": 0,
      "name": ""
    },
    {
      "mesh": 1,
      "name": ""
    },
    {
      "mesh": 2,
      "name": ""
    },
    {
      "mesh": 3,
      "name": ""
    },
    {
      "mesh": 4,
      "name": ""
    },
    {
      "mesh": 5,
      "name": ""
    },
    {
      "mesh": 6,
      "name": ""
    },
    {
      "mesh": 7,
      "name": ""
    },
    {
      "mesh": 8,
      "name": ""
    },
    {
      "mesh": 9,
      "name": ""
    }
  ],
  "samplers": [
    {
      "magFilter": 9729,
      "minFilter": 9987,
      "wrapS": 10497,
      "wrapT": 10497
    }
  ],
  "scene": 0,
  "scenes": [
    {
      "name": "OSG_Scene",
      "nodes": [
        0
      ]
    }
  ],
  "textures": [
    {
      "sampler": 0,
      "source": 0
    },
    {
      "sampler": 0,
      "source": 1
    },
    {
      "sampler": 0,
      "source": 2
    },
    {
      "sampler": 0,
      "source": 3
    },
    {
      "sampler": 0,
      "source": 4
    },
    {
      "sampler": 0,
      "source": 5
    },
    {
      "sampler": 0,
      "source": 6
    },
    {
      "sampler": 0,
      "source": 7
    },
    {
      "sampler": 0,
      "source": 8
    },
    {
      "sampler": 0,
      "source": 9
    }
  ]
}

